<svg width="318" height="279" xmlns="http://www.w3.org/2000/svg" xmlns:xlink="http://www.w3.org/1999/xlink"><defs><path d="M310.34 153.5l-62.43 108.131a30 30 0 0 1-25.98 15H97.07a30 30 0 0 1-25.98-15L8.66 153.5a30 30 0 0 1 0-30L71.09 15.369a30 30 0 0 1 25.98-15h124.86a30 30 0 0 1 25.98 15L310.34 123.5a30 30 0 0 1 0 30z" id="a"/></defs><g fill="none" fill-rule="evenodd"><g transform="translate(-1 1)"><mask id="b" fill="#fff"><use xlink:href="#a"/></mask><g mask="url(#b)" fill="#FFE01C" fill-rule="nonzero"><path transform="translate(-58 -13)" d="M0.5 0H455.5V303H0.5z"/></g></g><g transform="translate(74 89)" fill="#000" fill-rule="nonzero"><path d="M0 28H21V42H0z"/><path d="M0 85H99V99H0z"/><path d="M36 28H71V42H36z"/><path d="M0 0H106V14H0z"/><path d="M0 57H70V71H0z"/><path d="M169 42.5207608L111.31292 42.5207608 118.559312 39.7005791 131.986452 26.3762615 122.750964 17 90 49.5001652 122.680032 82 132.057717 72.7648467 118.346183 59.1583127 111.384185 56.6203474 169 56.6203474z"/></g></g></svg>